<svg width="64" height="64" viewBox="0 0 64 64" fill="none" xmlns="http://www.w3.org/2000/svg">
<g clip-path="url(#clip0_43_83)">
<path d="M28.272 2.90792C29.244 -0.972075 34.752 -0.972075 35.728 2.90792L36.012 4.05192C36.1782 4.71675 36.5193 5.325 36.9998 5.81355C37.4804 6.30211 38.0829 6.65316 38.7449 6.83029C39.4069 7.00742 40.1042 7.00417 40.7645 6.82088C41.4248 6.63759 42.0241 6.28093 42.5 5.78792L43.32 4.94392C46.1 2.06792 50.872 4.82393 49.772 8.66792L49.452 9.80392C49.2637 10.4625 49.2549 11.1595 49.4266 11.8227C49.5983 12.4858 49.9443 13.0909 50.4287 13.5753C50.9131 14.0597 51.5182 14.4057 52.1813 14.5774C52.8445 14.7491 53.5415 14.7403 54.2 14.5519L55.332 14.2279C59.172 13.1279 61.932 17.8999 59.056 20.6799L58.212 21.4999C57.719 21.9759 57.3624 22.5751 57.1791 23.2354C56.9958 23.8958 56.9925 24.5931 57.1697 25.2551C57.3468 25.9171 57.6979 26.5196 58.1864 27.0002C58.675 27.4807 59.2832 27.8218 59.948 27.9879L61.092 28.2719C64.972 29.2439 64.972 34.7519 61.092 35.7279L59.948 36.0119C59.2832 36.1781 58.675 36.5191 58.1864 36.9997C57.6979 37.4802 57.3468 38.0828 57.1697 38.7448C56.9925 39.4068 56.9958 40.1041 57.1791 40.7644C57.3624 41.4247 57.719 42.0239 58.212 42.4999L59.056 43.3199C61.932 46.0999 59.176 50.8719 55.332 49.7719L54.196 49.4519C53.5374 49.2635 52.8405 49.2547 52.1773 49.4265C51.5142 49.5982 50.9091 49.9442 50.4247 50.4286C49.9403 50.9129 49.5943 51.5181 49.4226 52.1812C49.2509 52.8443 49.2597 53.5413 49.448 54.1999L49.772 55.3319C50.872 59.1719 46.1 61.9319 43.32 59.0559L42.5 58.2119C42.0241 57.7189 41.4248 57.3623 40.7645 57.179C40.1042 56.9957 39.4069 56.9924 38.7449 57.1696C38.0829 57.3467 37.4804 57.6977 36.9998 58.1863C36.5193 58.6748 36.1782 59.2831 36.012 59.9479L35.728 61.0919C34.756 64.9719 29.248 64.9719 28.272 61.0919L27.988 59.9479C27.8219 59.2831 27.4808 58.6748 27.0003 58.1863C26.5197 57.6977 25.9172 57.3467 25.2552 57.1696C24.5932 56.9924 23.8959 56.9957 23.2356 57.179C22.5753 57.3623 21.976 57.7189 21.5 58.2119L20.68 59.0559C17.9 61.9319 13.128 59.1759 14.228 55.3319L14.548 54.1959C14.7361 53.5377 14.7448 52.8413 14.5732 52.1786C14.4016 51.5159 14.056 50.9112 13.5722 50.4269C13.0884 49.9427 12.4839 49.5966 11.8214 49.4245C11.1589 49.2524 10.4624 49.2604 9.80405 49.4479L8.66805 49.7719C4.82805 50.8719 2.06805 46.0999 4.94405 43.3199L5.78805 42.4999C6.28106 42.0239 6.63771 41.4247 6.821 40.7644C7.0043 40.1041 7.00754 39.4068 6.83041 38.7448C6.65329 38.0828 6.30223 37.4802 5.81368 36.9997C5.32512 36.5191 4.71688 36.1781 4.05205 36.0119L2.90805 35.7279C-0.971953 34.7559 -0.971953 29.2479 2.90805 28.2719L4.05205 27.9879C4.71688 27.8218 5.32512 27.4807 5.81368 27.0002C6.30223 26.5196 6.65329 25.9171 6.83041 25.2551C7.00754 24.5931 7.0043 23.8958 6.821 23.2354C6.63771 22.5751 6.28106 21.9759 5.78805 21.4999L4.94405 20.6799C2.06805 17.8999 4.82405 13.1279 8.66805 14.2279L9.80405 14.5479C10.4622 14.736 11.1587 14.7446 11.8214 14.5731C12.484 14.4015 13.0888 14.0559 13.573 13.5721C14.0573 13.0883 14.4034 12.4838 14.5755 11.8213C14.7476 11.1588 14.7395 10.4623 14.552 9.80392L14.228 8.66792C13.128 4.82792 17.9 2.06792 20.68 4.94392L21.5 5.78792C21.976 6.28093 22.5753 6.63759 23.2356 6.82088C23.8959 7.00417 24.5932 7.00742 25.2552 6.83029C25.9172 6.65316 26.5197 6.30211 27.0003 5.81355C27.4808 5.325 27.8219 4.71675 27.988 4.05192L28.272 2.90792ZM51.892 33.9999H33L21.664 49.1159C24.5516 50.86 27.8334 51.845 31.2041 51.9793C34.5747 52.1136 37.9245 51.3928 40.9417 49.884C43.9588 48.3753 46.5451 46.1276 48.4597 43.3503C50.3744 40.573 51.5551 37.3564 51.892 33.9999ZM51.892 29.9999C51.5551 26.6435 50.3744 23.4268 48.4597 20.6495C46.5451 17.8722 43.9588 15.6246 40.9417 14.1158C37.9245 12.607 34.5747 11.8863 31.2041 12.0206C27.8334 12.1549 24.5516 13.1399 21.664 14.8839L33 30.0039H51.892V29.9999ZM20.192 15.8679C20.072 15.9519 19.96 16.0399 19.844 16.1279L20.192 15.8679ZM18.468 17.2879C16.4295 19.1578 14.8024 21.4315 13.6902 23.9643C12.5781 26.4971 12.0052 29.2337 12.008 31.9999C12.008 37.8199 14.496 43.0599 18.468 46.7119L29.5 31.9999L18.468 17.2879ZM19.844 47.8719L20.192 48.1319L19.844 47.8719Z" fill="#1B171F"/>
</g>
<defs>
<clipPath id="clip0_43_83">
<rect width="64" height="64" fill="white"/>
</clipPath>
</defs>
</svg>
