<svg width="64" height="64" viewBox="0 0 64 64" fill="none" xmlns="http://www.w3.org/2000/svg">
<g clip-path="url(#clip0_43_87)">
<path d="M31.9996 19.016C30.2945 19.016 28.6062 19.3518 27.0309 20.0043C25.4556 20.6568 24.0242 21.6132 22.8186 22.8189C21.6129 24.0246 20.6565 25.4559 20.004 27.0312C19.3515 28.6065 19.0156 30.2949 19.0156 32C19.0156 33.7051 19.3515 35.3935 20.004 36.9688C20.6565 38.544 21.6129 39.9754 22.8186 41.1811C24.0242 42.3867 25.4556 43.3431 27.0309 43.9956C28.6062 44.6481 30.2945 44.984 31.9996 44.984C35.4432 44.984 38.7457 43.616 41.1807 41.1811C43.6157 38.7461 44.9836 35.4436 44.9836 32C44.9836 28.5564 43.6157 25.2539 41.1807 22.8189C38.7457 20.3839 35.4432 19.016 31.9996 19.016ZM23.0156 32C23.0156 29.6173 23.9622 27.3322 25.647 25.6473C27.3318 23.9625 29.6169 23.016 31.9996 23.016C34.3823 23.016 36.6674 23.9625 38.3523 25.6473C40.0371 27.3322 40.9836 29.6173 40.9836 32C40.9836 34.3827 40.0371 36.6678 38.3523 38.3526C36.6674 40.0375 34.3823 40.984 31.9996 40.984C29.6169 40.984 27.3318 40.0375 25.647 38.3526C23.9622 36.6678 23.0156 34.3827 23.0156 32Z" fill="#1B171F"/>
<path d="M39.184 5.37208C37.076 -1.78792 26.924 -1.78792 24.816 5.37208L24.44 6.64807C24.2927 7.14788 24.0355 7.60841 23.6872 7.99591C23.3389 8.3834 22.9083 8.68804 22.4269 8.88748C21.9456 9.08693 21.4257 9.17613 20.9054 9.14855C20.3851 9.12096 19.8775 8.9773 19.42 8.72808L18.252 8.08808C11.692 4.52008 4.51995 11.6961 8.09195 18.2521L8.72795 19.4201C8.97717 19.8776 9.12084 20.3852 9.14842 20.9055C9.17601 21.4258 9.08681 21.9457 8.88736 22.427C8.68792 22.9084 8.38328 23.339 7.99579 23.6873C7.60829 24.0357 7.14776 24.2929 6.64795 24.4401L5.37195 24.8161C-1.78805 26.9241 -1.78805 37.0761 5.37195 39.1841L6.64795 39.5601C7.14776 39.7073 7.60829 39.9645 7.99579 40.3128C8.38328 40.6611 8.68792 41.0918 8.88736 41.5731C9.08681 42.0545 9.17601 42.5743 9.14842 43.0947C9.12084 43.615 8.97717 44.1225 8.72795 44.5801L8.08795 45.7481C4.51995 52.3081 11.692 59.4841 18.252 55.9081L19.42 55.2721C19.8775 55.0229 20.3851 54.8792 20.9054 54.8516C21.4257 54.824 21.9456 54.9132 22.4269 55.1127C22.9083 55.3121 23.3389 55.6167 23.6872 56.0042C24.0355 56.3917 24.2927 56.8523 24.44 57.3521L24.816 58.6281C26.924 65.7881 37.076 65.7881 39.184 58.6281L39.56 57.3521C39.7072 56.8523 39.9644 56.3917 40.3127 56.0042C40.661 55.6167 41.0916 55.3121 41.573 55.1127C42.0543 54.9132 42.5742 54.824 43.0945 54.8516C43.6148 54.8792 44.1224 55.0229 44.58 55.2721L45.748 55.9121C52.308 59.4841 59.484 52.3041 55.908 45.7481L55.272 44.5801C55.0227 44.1225 54.8791 43.615 54.8515 43.0947C54.8239 42.5743 54.9131 42.0545 55.1125 41.5731C55.312 41.0918 55.6166 40.6611 56.0041 40.3128C56.3916 39.9645 56.8521 39.7073 57.352 39.5601L58.628 39.1841C65.7879 37.0761 65.7879 26.9241 58.628 24.8161L57.352 24.4401C56.8521 24.2929 56.3916 24.0357 56.0041 23.6873C55.6166 23.339 55.312 22.9084 55.1125 22.427C54.9131 21.9457 54.8239 21.4258 54.8515 20.9055C54.8791 20.3852 55.0227 19.8776 55.272 19.4201L55.912 18.2521C59.484 11.6921 52.304 4.52008 45.748 8.09208L44.58 8.72808C44.1224 8.9773 43.6148 9.12096 43.0945 9.14855C42.5742 9.17613 42.0543 9.08693 41.573 8.88748C41.0916 8.68804 40.661 8.3834 40.3127 7.99591C39.9644 7.60841 39.7072 7.14788 39.56 6.64807L39.184 5.37208ZM28.652 6.50408C29.636 3.16408 34.364 3.16408 35.348 6.50408L35.724 7.78008C36.04 8.85242 36.5921 9.84043 37.3397 10.6717C38.0872 11.5029 39.0113 12.1563 40.0443 12.584C41.0772 13.0117 42.1927 13.2027 43.3091 13.1432C44.4255 13.0837 45.5144 12.7751 46.496 12.2401L47.66 11.6001C50.716 9.94007 54.06 13.2801 52.396 16.3401L51.76 17.5081C51.2257 18.4898 50.9179 19.5786 50.859 20.6947C50.8001 21.8108 50.9917 22.926 51.4198 23.9584C51.8478 24.9909 52.5014 25.9145 53.3326 26.6616C54.1639 27.4087 55.1518 27.9603 56.224 28.2761L57.496 28.6521C60.836 29.6361 60.836 34.3641 57.496 35.3481L56.22 35.7241C55.1476 36.0402 54.1596 36.5922 53.3284 37.3398C52.4971 38.0873 51.8437 39.0115 51.416 40.0444C50.9884 41.0773 50.7973 42.1928 50.8568 43.3092C50.9163 44.4256 51.2249 45.5145 51.76 46.4961L52.4 47.6601C54.06 50.7161 50.72 54.0601 47.66 52.3961L46.496 51.7601C45.5141 51.2251 44.4249 50.9166 43.3083 50.8574C42.1917 50.7981 41.0761 50.9895 40.0431 51.4176C39.0101 51.8457 38.086 52.4996 37.3387 53.3312C36.5913 54.1629 36.0396 55.1514 35.724 56.2241L35.348 57.4961C34.364 60.8361 29.636 60.8361 28.652 57.4961L28.276 56.2201C27.9597 55.1483 27.4078 54.1608 26.6605 53.33C25.9132 52.4992 24.9895 51.846 23.9571 51.4184C22.9247 50.9908 21.8097 50.7995 20.6938 50.8587C19.5779 50.9178 18.4894 51.2258 17.508 51.7601L16.34 52.4001C13.284 54.0601 9.93995 50.7201 11.604 47.6601L12.24 46.4961C12.7758 45.5143 13.085 44.4251 13.1449 43.3082C13.2048 42.1914 13.0138 41.0753 12.5861 40.0418C12.1584 39.0084 11.5047 38.0838 10.6731 37.336C9.8414 36.5882 8.85285 36.036 7.77995 35.7201L6.50395 35.3441C3.16395 34.3601 3.16395 29.6321 6.50395 28.6481L7.77995 28.2721C8.85118 27.9557 9.83811 27.4038 10.6685 26.6568C11.4989 25.9098 12.1518 24.9866 12.5794 23.9547C13.0069 22.9228 13.1983 21.8084 13.1396 20.693C13.0809 19.5775 12.7735 18.4894 12.24 17.5081L11.6 16.3401C9.93995 13.2841 13.28 9.94007 16.34 11.6041L17.508 12.2401C18.4894 12.7744 19.5779 13.0824 20.6938 13.1415C21.8097 13.2006 22.9247 13.0094 23.9571 12.5817C24.9895 12.1541 25.9132 11.501 26.6605 10.6702C27.4078 9.83933 27.9597 8.85186 28.276 7.78008L28.652 6.50408Z" fill="#1B171F"/>
</g>
<defs>
<clipPath id="clip0_43_87">
<rect width="64" height="64" fill="white"/>
</clipPath>
</defs>
</svg>
