<svg width="100" height="100" viewBox="0 0 100 100" fill="none" xmlns="http://www.w3.org/2000/svg">
<rect x="1.5" y="1.5" width="97" height="97" rx="3.5" fill="white" stroke="#DEF41E" stroke-width="3"/>
<path d="M78 10H22L26.5 67.5L50 74L73 67.5L78 10Z" fill="#FF4E1D" stroke="#FF4E1D"/>
<path d="M73 15H50.5V68L69.5 62.5L73 15Z" fill="#FF6520" stroke="#FF6520"/>
<path d="M67 28L67.5 21H32L34 43H58.5L57.5 51.5L50 54L41.5 51.5V46H34.5L35.5 57.5L50 61.5L64.5 57.5L66 35.5H40.5L40 28H67Z" fill="white" stroke="white"/>
<path d="M33.7294 91V79.3636H35.1385V84.5455H41.343V79.3636H42.7521V91H41.343V85.7955H35.1385V91H33.7294ZM49.1868 82.2727V83.4091H44.6641V82.2727H49.1868ZM45.9822 80.1818H47.3232V88.5C47.3232 88.8788 47.3781 89.1629 47.4879 89.3523C47.6016 89.5379 47.7455 89.6629 47.9197 89.7273C48.0978 89.7879 48.2853 89.8182 48.4822 89.8182C48.63 89.8182 48.7512 89.8106 48.8459 89.7955C48.9406 89.7765 49.0163 89.7614 49.0732 89.75L49.3459 90.9545C49.255 90.9886 49.1281 91.0227 48.9652 91.0568C48.8023 91.0947 48.5959 91.1136 48.3459 91.1136C47.9671 91.1136 47.5959 91.0322 47.2322 90.8693C46.8724 90.7064 46.5732 90.4583 46.3345 90.125C46.0997 89.7917 45.9822 89.3712 45.9822 88.8636V80.1818ZM51.2038 91V82.2727H52.4993V83.6364H52.6129C52.7947 83.1705 53.0883 82.8087 53.4936 82.5511C53.8989 82.2898 54.3857 82.1591 54.9538 82.1591C55.5296 82.1591 56.0088 82.2898 56.3913 82.5511C56.7777 82.8087 57.0788 83.1705 57.2947 83.6364H57.3857C57.6091 83.1856 57.9444 82.8277 58.3913 82.5625C58.8383 82.2936 59.3743 82.1591 59.9993 82.1591C60.7796 82.1591 61.4179 82.4034 61.9141 82.892C62.4103 83.3769 62.6584 84.1326 62.6584 85.1591V91H61.3175V85.1591C61.3175 84.5152 61.1413 84.0549 60.7891 83.7784C60.4368 83.5019 60.022 83.3636 59.5447 83.3636C58.9311 83.3636 58.4557 83.5492 58.1186 83.9205C57.7815 84.2879 57.6129 84.7538 57.6129 85.3182V91H56.2493V85.0227C56.2493 84.5265 56.0883 84.1269 55.7663 83.8239C55.4444 83.517 55.0296 83.3636 54.522 83.3636C54.1735 83.3636 53.8478 83.4564 53.5447 83.642C53.2455 83.8277 53.0031 84.0852 52.8175 84.4148C52.6357 84.7405 52.5447 85.1174 52.5447 85.5455V91H51.2038ZM66.451 79.3636V91H65.1101V79.3636H66.451Z" fill="black"/>
</svg>
