<svg width="78" height="78" viewBox="0 0 78 78" fill="none" xmlns="http://www.w3.org/2000/svg">
<g filter="url(#filter0_d_809_10)">
<rect x="4" width="70" height="70" rx="15" fill="#E4CE00"/>
<rect x="6" y="2" width="66" height="66" rx="15" fill="#1B171F"/>
<path d="M11.56 32.2V30.56H14.84V26.52C14.84 24.4133 15.44 22.7067 16.64 21.4C17.84 20.0667 19.7733 19.4 22.44 19.4C23.7467 19.4 24.9867 19.64 26.16 20.12C27.36 20.6 28.3467 21.24 29.12 22.04L28.04 23.28C26.8933 22.2933 25.6133 21.8 24.2 21.8C21.96 21.8 20.84 23.2667 20.84 26.2V30.56H25.36V32.2H20.84V55.28H14.84V32.2H11.56ZM51.1931 31.84V45.16C51.1931 46.0133 51.4598 46.6667 51.9931 47.12C52.5265 47.5467 53.1931 47.76 53.9931 47.76C55.6731 47.76 57.1265 46.8933 58.3531 45.16C59.5798 43.4 60.1931 41.2533 60.1931 38.72C60.1931 37.44 59.9398 36.0933 59.4331 34.68C58.9531 35 58.3398 35.16 57.5931 35.16C56.8465 35.16 56.1665 34.8667 55.5531 34.28C54.9665 33.6667 54.6731 32.9333 54.6731 32.08C54.6731 31.2267 54.9665 30.5067 55.5531 29.92C56.1665 29.3067 56.9265 29 57.8331 29C58.7398 29 59.5131 29.3467 60.1531 30.04C60.8198 30.7067 61.2998 31.6 61.5931 32.72C62.0731 34.6667 62.3131 36.5733 62.3131 38.44C62.3131 40.3067 62.0865 41.9333 61.6331 43.32C61.1798 44.7067 60.5931 45.84 59.8731 46.72C59.1531 47.5733 58.3398 48.3067 57.4331 48.92C55.8065 50.04 54.1798 50.6 52.5531 50.6C49.3798 50.6 47.1931 49.56 45.9931 47.48C45.1131 48.4933 44.0731 49.2667 42.8731 49.8C41.6731 50.3333 40.5665 50.6 39.5531 50.6C37.2865 50.6 35.4865 50.04 34.1531 48.92C32.8465 47.7733 32.1931 46.1067 32.1931 43.92V31.32C30.7265 31.6933 29.6065 32.3467 28.8331 33.28L27.7531 32.04C28.5265 31.24 29.4998 30.6 30.6731 30.12C31.8731 29.64 33.0465 29.4 34.1931 29.4C35.3665 29.4 36.3265 29.64 37.0731 30.12C37.8198 30.5733 38.1931 31.1467 38.1931 31.84V45.16C38.1931 46.0133 38.4598 46.6667 38.9931 47.12C39.5265 47.5467 40.1931 47.76 40.9931 47.76C42.8065 47.76 44.2198 46.8667 45.2331 45.08C45.2065 44.84 45.1931 44.4533 45.1931 43.92V31.32C43.7265 31.6933 42.6065 32.3467 41.8331 33.28L40.7531 32.04C41.5265 31.24 42.4998 30.6 43.6731 30.12C44.8731 29.64 46.0465 29.4 47.1931 29.4C48.3665 29.4 49.3265 29.64 50.0731 30.12C50.8198 30.5733 51.1931 31.1467 51.1931 31.84Z" fill="#E4CE00"/>
</g>
<defs>
<filter id="filter0_d_809_10" x="0" y="0" width="78" height="78" filterUnits="userSpaceOnUse" color-interpolation-filters="sRGB">
<feFlood flood-opacity="0" result="BackgroundImageFix"/>
<feColorMatrix in="SourceAlpha" type="matrix" values="0 0 0 0 0 0 0 0 0 0 0 0 0 0 0 0 0 0 127 0" result="hardAlpha"/>
<feOffset dy="4"/>
<feGaussianBlur stdDeviation="2"/>
<feComposite in2="hardAlpha" operator="out"/>
<feColorMatrix type="matrix" values="0 0 0 0 0 0 0 0 0 0 0 0 0 0 0 0 0 0 0.25 0"/>
<feBlend mode="normal" in2="BackgroundImageFix" result="effect1_dropShadow_809_10"/>
<feBlend mode="normal" in="SourceGraphic" in2="effect1_dropShadow_809_10" result="shape"/>
</filter>
</defs>
</svg>
