<svg width="33" height="36" viewBox="0 0 33 36" fill="none" xmlns="http://www.w3.org/2000/svg">
<g clip-path="url(#clip0_43_501)">
<path fill-rule="evenodd" clip-rule="evenodd" d="M13.4062 27C14.8959 27 16.371 26.6799 17.7473 26.058C19.1236 25.4361 20.3741 24.5246 21.4275 23.3754C22.4809 22.2263 23.3164 20.8621 23.8865 19.3607C24.4566 17.8593 24.75 16.2501 24.75 14.625C24.75 12.9999 24.4566 11.3907 23.8865 9.88929C23.3164 8.38789 22.4809 7.02368 21.4275 5.87455C20.3741 4.72543 19.1236 3.81389 17.7473 3.19199C16.371 2.57009 14.8959 2.25 13.4062 2.25C10.3977 2.25 7.51237 3.55379 5.38501 5.87455C3.25764 8.19532 2.0625 11.3429 2.0625 14.625C2.0625 17.9071 3.25764 21.0547 5.38501 23.3754C7.51237 25.6962 10.3977 27 13.4062 27ZM26.8125 14.625C26.8125 18.5038 25.4001 22.2237 22.8859 24.9664C20.3717 27.7092 16.9618 29.25 13.4062 29.25C9.85069 29.25 6.44076 27.7092 3.9266 24.9664C1.41244 22.2237 0 18.5038 0 14.625C0 10.7462 1.41244 7.02628 3.9266 4.28356C6.44076 1.54084 9.85069 0 13.4062 0C16.9618 0 20.3717 1.54084 22.8859 4.28356C25.4001 7.02628 26.8125 10.7462 26.8125 14.625Z" fill="#DEF41E"/>
<path d="M21.335 26.4195C21.3968 26.5095 21.4628 26.595 21.5371 26.6782L29.4777 35.3407C29.8644 35.7629 30.3891 36.0002 30.9362 36.0004C31.4833 36.0006 32.0081 35.7637 32.3951 35.3419C32.7821 34.92 32.9997 34.3476 32.9998 33.7508C33 33.1539 32.7829 32.5814 32.3961 32.1592L24.4555 23.4967C24.3818 23.4153 24.3025 23.3401 24.2183 23.2717C23.4093 24.4752 22.437 25.5374 21.335 26.4217V26.4195Z" fill="#DEF41E"/>
<path fill-rule="evenodd" clip-rule="evenodd" d="M13.4062 6.75C13.6798 6.75 13.9421 6.86853 14.1355 7.07951C14.3289 7.29048 14.4375 7.57663 14.4375 7.875V13.5H19.5938C19.8673 13.5 20.1296 13.6185 20.323 13.8295C20.5164 14.0405 20.625 14.3266 20.625 14.625C20.625 14.9234 20.5164 15.2095 20.323 15.4205C20.1296 15.6315 19.8673 15.75 19.5938 15.75H14.4375V21.375C14.4375 21.6734 14.3289 21.9595 14.1355 22.1705C13.9421 22.3815 13.6798 22.5 13.4062 22.5C13.1327 22.5 12.8704 22.3815 12.677 22.1705C12.4836 21.9595 12.375 21.6734 12.375 21.375V15.75H7.21875C6.94525 15.75 6.68294 15.6315 6.48955 15.4205C6.29615 15.2095 6.1875 14.9234 6.1875 14.625C6.1875 14.3266 6.29615 14.0405 6.48955 13.8295C6.68294 13.6185 6.94525 13.5 7.21875 13.5H12.375V7.875C12.375 7.57663 12.4836 7.29048 12.677 7.07951C12.8704 6.86853 13.1327 6.75 13.4062 6.75Z" fill="#DEF41E"/>
</g>
<defs>
<clipPath id="clip0_43_501">
<rect width="33" height="36" fill="white"/>
</clipPath>
</defs>
</svg>
